<?xml version="1.0" encoding="utf-8"?>
<!-- Generator: Adobe Illustrator 16.0.0, SVG Export Plug-In . SVG Version: 6.00 Build 0)  -->
<!DOCTYPE svg PUBLIC "-//W3C//DTD SVG 1.1//EN" "http://www.w3.org/Graphics/SVG/1.1/DTD/svg11.dtd">
<svg version="1.1" id="Capa_1" xmlns="http://www.w3.org/2000/svg" xmlns:xlink="http://www.w3.org/1999/xlink" x="0px" y="0px"
	 width="300.001px" height="300px" viewBox="0 0 300.001 300" enable-background="new 0 0 300.001 300" xml:space="preserve">
<g id="Capa_4">
	<path id="db" fill="#4699D4" d="M149.986,231.948c-39.698,0-79.56-10.111-98.421-32.171c-0.545,2.422-0.927,4.953-0.927,7.621
		v40.011c0,35.491,51.498,51.591,99.362,51.591c47.861,0,99.36-16.125,99.36-51.591v-40.011c0-2.682-0.381-5.199-0.939-7.621
		C229.572,221.754,189.727,231.948,149.986,231.948z M149.986,154.579c-39.698,0-79.56-10.192-98.408-32.185
		c-0.558,2.45-0.938,4.955-0.938,7.607v40.025c0,35.452,51.498,51.577,99.362,51.577c47.861,0,99.36-16.125,99.36-51.577v-40.025
		c0-2.652-0.381-5.185-0.939-7.607C229.572,144.386,189.727,154.579,149.986,154.579z M150.001,1
		c-47.864,0-99.362,16.141-99.362,51.632v40.011c0,35.452,51.498,51.594,99.362,51.594c47.861,0,99.36-16.142,99.36-51.594V52.632
		C249.361,17.167,197.862,1,150.001,1z M150.001,83.58c-43.482,0-78.717-13.854-78.717-30.96c0-17.093,35.234-30.961,78.717-30.961
		c43.467,0,78.701,13.867,78.701,30.961C228.702,69.74,193.468,83.58,150.001,83.58z"/>
</g>
</svg>
